<svg xmlns="http://www.w3.org/2000/svg" width="1000" height="1000" id="empty" style=""><g id="icon"><path fill="#0f3877" d="M249.40000000000003 341.119945844075L176.70000000000005 341.119945844075L176.70000000000005 476.119945844075L249.40000000000003 411.019945844075Z " transform="matrix(1.4285714285714286,0,0,1.4285715256251665,-2.1428571428571432,-10.885716587392167)"></path><path fill="#0f3877" d="M345.20000000000005 399.919945844075L345.20000000000005 275.019945844075L272.50000000000006 275.019945844075L272.50000000000006 390.319945844075L295.1 370.119945844075Z " transform="matrix(1.4285714285714286,0,0,1.4285715256251665,-2.1428571428571432,-10.885716587392167)"></path><path fill="#0f3877" d="M441.1000000000001 208.91994584407496L368.40000000000003 208.91994584407496L368.40000000000003 411.519945844075L441.1000000000001 356.019945844075Z " transform="matrix(1.4285714285714286,0,0,1.4285715256251665,-2.1428571428571432,-10.885716587392167)"></path><path fill="#0f3877" d="M175.40000000000003 479.41994584407496C149.10000000000002 445.81994584407494 133.3 403.519945844075 133.3 357.619945844075C133.3 248.61994584407498 222 159.819945844075 331.1 159.819945844075C414.5 159.819945844075 485.9 211.71994584407497 515 284.91994584407496L542.4 281.41994584407496C511.1 195.01994584407498 428.2 133.01994584407498 331.1 133.01994584407498C207.20000000000002 133.01994584407498 106.50000000000001 233.819945844075 106.50000000000001 357.619945844075C106.50000000000001 410.41994584407496 124.80000000000001 458.91994584407496 155.4 497.31994584407494L175.40000000000003 479.41994584407496Z " transform="matrix(1.4285714285714286,0,0,1.4285715256251665,-2.1428571428571432,-10.885716587392167)"></path><path fill="#0f3877" d="M530.4 389.819945844075L525.5 393.519945844075C508.6 485.419945844075 427.80000000000007 555.3199458440749 331.1 555.3199458440749C286.20000000000005 555.3199458440749 244.80000000000004 540.3199458440749 211.60000000000002 515.019945844075L186.8 529.519945844075C225.90000000000003 562.3199458440749 276.20000000000005 582.219945844075 331.1 582.219945844075C435.6 582.219945844075 523.7 510.519945844075 548.6 413.619945844075L530.4 389.819945844075Z " transform="matrix(1.4285714285714286,0,0,1.4285715256251665,-2.1428571428571432,-10.885716587392167)"></path><path fill="#0f3877" d="M596.5 289.519945844075L483.7 304.019945844075L503.2 329.519945844075L368 432.619945844075L297.1 390.519945844075L113.00000000000001 555.3199458440749L296.90000000000003 448.019945844075L371.4 492.319945844075L533.2 368.919945844075L552.7 394.419945844075Z " transform="matrix(1.4285714285714286,0,0,1.4285715256251665,-2.1428571428571432,-10.885716587392167)"></path><g transform="matrix(2.857142857142857,0,0,2.857143051250333,-2.1428571428571432,-10.885716587392167)"></g></g></svg>